<svg width="12" height="16" viewBox="0 0 12 16" fill="none" xmlns="http://www.w3.org/2000/svg">
<path fill-rule="evenodd" clip-rule="evenodd" d="M8.08317 0.5L8.9165 1.33333H11.8332V3H0.166504V1.33333H3.08317L3.9165 0.5H8.08317ZM5.99984 8.49167L7.7665 6.725L8.9415 7.9L7.17484 9.66667L8.9415 11.4333L7.7665 12.6083L5.99984 10.8417L4.23317 12.6083L3.05817 11.4333L4.82484 9.66667L3.04984 7.9L4.22484 6.725L5.99984 8.49167ZM0.999837 13.8333C0.999837 14.75 1.74984 15.5 2.6665 15.5H9.33317C10.2498 15.5 10.9998 14.75 10.9998 13.8333V3.83333H0.999837V13.8333ZM9.33317 5.5H2.6665V13.8333H9.33317V5.5Z" fill="black" fill-opacity="0.54"/>
</svg>
