<svg width="60" height="60" viewBox="0 0 60 60" fill="none" xmlns="http://www.w3.org/2000/svg">
<g clip-path="url(#clip0_31_114)">
<path fill-rule="evenodd" clip-rule="evenodd" d="M40.5471 3.80745C40.5471 4.44849 40.6852 4.8455 41.4842 4.8455C43.0823 4.8455 41.4817 1.73012 44.414 1.73012H51.3278C53.5843 1.73012 53.8063 3.81109 52.7101 4.70709C52.2797 5.05918 51.937 4.9657 51.2107 4.96206C50.3525 4.95598 46.6039 4.7933 45.9455 5.08589C45.4522 5.30443 45.4091 5.56668 45.3265 6.20772C45.0712 8.19885 44.5965 10.3563 44.4202 12.3717C44.319 13.5324 45.6397 13.6028 46.4547 13.9136C47.2846 14.2305 51.186 15.6935 51.7964 15.6935C52.4474 15.6935 52.7594 14.84 53.0073 14.3471C53.334 13.6951 53.6115 13.2762 53.9444 12.617C55.0036 10.5238 55.101 9.57807 56.7176 9.57807C57.4463 9.57807 58.2416 10.3903 58.2416 11.0787C58.2416 11.5158 54.6411 18.5418 54.2786 18.9461C53.1466 20.2063 50.9826 18.8684 49.6138 18.4204C48.403 18.0233 47.4301 17.6652 46.2155 17.267C43.9171 16.513 44.4473 16.7704 41.6075 18.4714C38.1352 20.5499 34.838 16.0844 37.5248 13.6441C38.0242 13.19 38.7973 12.8404 39.3732 12.464C39.7357 12.2272 41.0206 11.5558 41.1981 11.2608C41.3868 10.9476 41.6001 9.05843 41.6001 8.54122C41.6001 7.52745 40.0403 7.25428 39.7863 8.71605C39.6987 9.22233 39.6087 9.76382 39.6087 10.2713C39.3473 10.4073 39.1956 10.4777 38.9305 10.6416C38.6592 10.8092 38.4891 10.9634 38.0859 10.9634H10.7807C10.4367 10.9634 8.71165 9.92773 7.45391 9.73954C3.45137 9.13735 0 11.8618 0 15.5794C0 18.2492 0.992622 19.8506 2.84469 21.2019C3.23681 21.4884 3.56234 21.6802 3.96309 21.9473L12.1199 27.531C12.5206 27.8187 12.8683 28.0118 13.2419 28.2728L16.1545 30.2518C16.464 30.4497 16.5342 30.4193 16.6403 30.8115C16.0521 30.86 15.5071 31.1623 14.9572 31.3469C13.9436 31.6856 10.5465 32.6654 10.5465 33.6962C10.5465 34.183 11.0409 34.6189 11.4836 34.6189C11.9559 34.6189 12.8535 34.1029 13.3418 33.9099C15.3838 33.1013 28.9537 27.894 30.1819 27.6451C36.69 26.3266 39.3831 35.3255 33.3484 37.8023L18.3469 43.4539C16.1828 44.3147 14.5021 44.946 12.2666 44.0027C11.745 43.7829 11.1248 43.3264 10.7487 42.9585C7.77451 40.0423 9.89663 37.6493 9.30599 36.7715C8.69438 35.8609 7.26402 36.1742 7.26402 39.1196C7.26402 39.848 7.47611 40.8824 7.68573 41.4737C8.25788 43.0872 10.2431 45.6623 12.0681 45.8129V49.7357C9.08527 49.7357 9.61672 50.0805 8.81153 52.9907C8.40584 54.4585 7.95701 55.9094 7.61545 57.3517C6.76709 57.3517 3.98282 56.9681 3.98282 58.1591C3.98282 58.7176 4.35274 59.0818 4.91995 59.0818H34.8022C35.4187 59.0818 36.3583 57.3201 34.103 57.3481C33.3595 57.3566 32.616 57.3517 31.8724 57.3517C31.8169 56.6997 31.505 55.9009 31.3336 55.2282C31.1387 54.4609 30.9439 53.9243 30.7479 53.1509C30.5592 52.4079 30.3742 51.8069 30.1658 51.07C29.68 49.3508 28.9846 49.7357 27.4198 49.7357V42.2362C27.4198 41.8659 27.7293 41.8452 28.0684 41.7202C28.4174 41.5915 28.6516 41.4895 28.9932 41.3608C32.1264 40.188 35.3398 39.5348 37.2153 36.9949C40.2585 32.8754 37.7924 26.6799 32.6924 25.8519C31.8046 25.7074 31.3681 25.2315 30.6541 24.7434L25.077 20.8886C27.6874 20.8886 39.4681 21.1145 41.0329 20.6762C42.0502 20.3921 44.5792 18.6923 44.9516 18.7397C45.6545 18.8295 48.7828 20.0035 49.4868 20.2779C52.2501 21.3548 54.646 22.1149 56.2885 19.0808C57.122 17.5414 57.8545 15.8501 58.7595 14.3604C59.3391 13.4073 59.9988 12.1665 59.9988 10.9658C59.9988 7.49103 55.101 6.26236 53.2009 10.0419C52.7508 10.9366 51.6558 12.7238 51.4437 13.6198C50.9234 13.6089 50.5374 13.4256 50.1552 13.2738C49.5115 13.02 46.8345 12.0488 46.2883 12.0051C46.6594 11.2438 46.8555 7.8844 47.1082 6.81234C50.075 6.81234 52.6472 7.42304 54.2292 5.74758C55.9346 3.94342 55.0455 0.00488281 52.1466 0.00488281H43.7087C41.7555 0.00488281 40.5446 2.04214 40.5446 3.8123L40.5471 3.80745ZM13.8338 49.8121H25.675V42.5397L19.6021 44.8538C19.6021 44.8538 17.5799 45.6502 16.2987 46.0411C15.0163 46.4321 13.8499 46.2439 13.8499 46.2439L13.8338 46.222V49.8121ZM9.43053 57.3323H30.0906L28.4297 51.5932H11.0952L9.43053 57.3323ZM18.829 29.9422L29.3422 26.0206L8.71165 11.9431C8.71165 11.9431 5.21712 10.2458 2.98896 12.8743C0.760805 15.5041 2.11965 18.4337 3.21832 19.2751C4.31698 20.1165 18.829 29.9422 18.829 29.9422ZM13.168 12.7845L22.2471 19.0942L35.8269 19.0335C35.8269 19.0335 34.6974 17.6968 34.6974 15.8635C34.6974 14.0302 35.8873 12.7991 35.8873 12.7991L13.1667 12.7845H13.168Z" fill="#F4F4F4"/>
<path fill-rule="evenodd" clip-rule="evenodd" d="M26.8353 32.7685C26.8353 35.2356 28.8304 37.0373 31.0537 37.0373C33.2855 37.0373 35.272 35.0814 35.272 32.8839C35.272 29.2695 30.7799 27.2881 28.0746 29.9518C27.4272 30.5892 26.8341 31.5593 26.8341 32.7685H26.8353ZM31.0537 30.5249C32.3755 30.5249 33.4458 31.5799 33.4458 32.8802C33.4458 34.1817 32.3743 35.2356 31.0537 35.2356C29.7318 35.2356 28.6615 34.1805 28.6615 32.8802C28.6615 31.5787 29.7331 30.5249 31.0537 30.5249Z" fill="#F4F4F4"/>
<path fill-rule="evenodd" clip-rule="evenodd" d="M3.04694 16.0383C3.04694 19.0602 6.73998 20.5438 8.82141 18.4932C10.5896 16.751 9.96077 14.3616 8.55876 13.3806C5.98781 11.5813 3.04694 13.587 3.04694 16.0383ZM6.47487 14.4624C7.37378 14.4624 8.10253 15.1799 8.10253 16.065C8.10253 16.9501 7.37378 17.6676 6.47487 17.6676C5.57596 17.6676 4.84722 16.9501 4.84722 16.065C4.84722 15.1799 5.57596 14.4624 6.47487 14.4624Z" fill="#F4F4F4"/>
<path fill-rule="evenodd" clip-rule="evenodd" d="M38.7887 15.9228C38.7887 16.485 38.9416 16.8456 39.6087 16.8456C40.8023 16.8456 40.8541 15.1143 39.6087 15.1143C39.0612 15.1143 38.7887 15.3838 38.7887 15.9216V15.9228Z" fill="#F4F4F4"/>
</g>
<defs>
<clipPath id="clip0_31_114">
<rect width="60" height="59.0769" fill="white"/>
</clipPath>
</defs>
</svg>
