<svg width="60" height="59" viewBox="0 0 60 59" fill="none" xmlns="http://www.w3.org/2000/svg">
<g clip-path="url(#clip0_31_91)">
<path fill-rule="evenodd" clip-rule="evenodd" d="M49.8044 56.8949C47.1097 56.8949 46.3491 56.8861 43.6077 56.4045C42.9526 56.2893 42.3053 56.0942 41.6726 55.8701L39.9605 54.9885V53.3203C43.8998 55.4403 54.0686 55.4403 58.007 53.3203C58.007 54.8276 58.2395 54.9234 57.1895 55.4684C55.3953 56.3992 51.9555 56.8958 49.8035 56.8958L49.8044 56.8949ZM39.9605 49.2674C44.2282 51.3497 53.6693 51.3848 58.007 49.2674C58.007 50.73 58.2015 50.9243 57.1134 51.4578C56.479 51.768 55.4411 52.0897 54.7177 52.2392C50.8458 53.0399 44.5817 53.213 40.9337 51.4956C39.7574 50.9418 39.9605 50.8566 39.9605 49.2674ZM39.9605 45.2155C40.7211 45.3957 41.1869 45.9028 43.8765 46.3581C47.6593 46.9989 52.424 46.9233 56.1091 45.9072C56.7547 45.7297 57.4133 45.3561 58.007 45.2155C58.007 46.8372 58.2266 46.795 57.0728 47.3636C55.4609 48.1582 52.3246 48.6909 50.5062 48.6706C49.8182 48.6636 49.4708 48.7919 48.9834 48.7919L46.1209 48.6038C44.8738 48.421 40.6796 47.9473 40.0539 46.7897C39.8637 46.4372 39.9605 45.6981 39.9605 45.2164V45.2155ZM50.0386 44.6196C47.0077 44.6196 43.4564 44.5906 40.8162 43.2722C39.7203 42.7255 39.9605 42.6815 39.9605 41.1627C41.1973 41.4554 41.6294 41.9239 43.9923 42.3062C47.693 42.9048 52.3816 42.8555 55.9925 41.8544C56.6683 41.6672 57.3416 41.3209 58.0079 41.1627C58.0079 42.7009 58.3069 43.1764 55.1498 43.9771C53.6313 44.3621 51.8717 44.6187 50.0386 44.6187V44.6196ZM49.9211 40.5677C46.6749 40.5677 42.67 40.5061 39.9597 38.6603V36.9921C41.9794 38.0794 45.1798 38.5373 47.5807 38.5373C48.234 38.5373 48.3455 38.6436 48.8701 38.6656C49.3896 38.6876 49.5711 38.5663 50.0369 38.5408C51.9089 38.438 51.1613 38.6375 53.7394 38.2543C54.5578 38.133 55.2267 37.9915 55.9657 37.7779C56.5378 37.6126 57.5473 37.1503 58.0062 37.1116C58.0062 38.7333 58.2905 39.0998 55.0314 39.926C53.5993 40.289 51.634 40.5677 49.9202 40.5677H49.9211ZM39.9597 32.9402C41.5802 33.8121 43.466 34.0476 45.3008 34.3017C48.8693 34.7956 54.7246 34.5416 58.0062 32.9402C58.0062 34.6445 58.364 34.9908 54.913 35.8723C51.577 36.7249 46.49 36.7434 43.1453 35.8969C39.4394 34.9582 39.9588 34.597 39.9588 32.9402H39.9597ZM40.0772 30.676C40.1351 29.965 40.8516 29.7549 41.6139 29.4982C43.9508 28.7116 46.3534 28.4119 48.9834 28.4119C51.6228 28.4119 56.9371 28.9911 57.8895 30.4378C57.1117 31.6191 53.2433 32.1518 51.6617 32.3276L49.1035 32.4691C47.4994 32.4796 45.7191 32.2933 44.1461 32.0208C43.3182 31.8775 42.6708 31.7378 41.9665 31.4961L40.0772 30.676ZM37.9676 30.3183V55.2267C37.9676 57.5585 43.5809 58.6414 45.4641 58.8057C49.0888 59.1222 52.1171 59.1318 55.6865 58.2309C57.2863 57.8275 59.9983 56.851 59.9983 54.9885V30.1996C59.9983 28.4435 57.0235 27.4459 55.6623 27.1005C53.7558 26.6171 51.2831 26.3015 48.9825 26.3015C45.4823 26.3015 37.9667 27.1796 37.9667 30.3192L37.9676 30.3183Z" fill="#F4F4F4"/>
<path fill-rule="evenodd" clip-rule="evenodd" d="M8.60561e-05 20.069V44.8578C8.60561e-05 45.1444 0.420978 45.5733 0.703589 45.5733H34.922C36.1752 45.5733 36.1173 43.7855 34.8045 43.7855H1.75798V21.1413H50.0396V22.9291C50.0396 24.6289 51.9141 24.6289 51.9141 22.9291C51.9141 21.3795 52.2365 19.3535 50.9764 19.3535H0.702725C0.420114 19.3535 -0.000778198 19.7816 -0.000778198 20.069H8.60561e-05Z" fill="#F4F4F4"/>
<path fill-rule="evenodd" clip-rule="evenodd" d="M1.99211 16.1357C1.99211 16.7993 2.56943 17.0893 2.69561 17.0893C3.73272 17.0893 3.7889 16.1998 3.9557 15.3912C4.18732 14.2697 5.49493 8.63565 5.5079 8.03182L10.5456 9.22455C11.3822 9.43286 12.3053 9.63326 13.1349 9.80905L25.9484 12.7474C29.4244 13.5252 32.7518 14.2679 36.1881 15.0862L43.8531 16.8257C44.6379 17.0164 45.821 17.4084 45.821 16.1357C45.821 15.1486 44.6033 15.1574 43.8056 14.9676C42.9154 14.7557 42.0589 14.5694 41.2275 14.3716C39.4956 13.9594 37.7247 13.5454 36.0653 13.1859C32.5444 12.423 29.0701 11.5467 25.6355 10.8023C24.4429 10.5438 5.80434 6.12451 4.68859 6.12451C3.84594 6.12451 3.37146 9.65699 3.11564 10.8409L1.99384 16.1357H1.99211Z" fill="#F4F4F4"/>
<path fill-rule="evenodd" clip-rule="evenodd" d="M24.7263 25.1933C31.7207 25.1933 34.1821 33.204 30.1495 37.5012C27.9759 39.8181 24.5803 40.3902 21.7006 38.9962C20.711 38.5172 20.7948 38.4355 20.1717 37.9292C18.9868 36.9668 18.1874 35.4743 17.8771 33.9467C16.9515 29.385 20.5269 25.1933 24.7263 25.1933ZM16.0544 32.463C16.0544 34.4653 16.8512 36.7708 18.0759 38.1533C18.6549 38.8073 18.8952 39.1764 19.7543 39.7829C20.272 40.1485 20.59 40.3103 21.1699 40.6073C26.6623 43.4235 33.7491 39.1395 33.7491 32.8199C33.7491 29.4808 32.4951 26.8 29.8367 24.9999C29.3527 24.6721 28.9482 24.448 28.3925 24.2045C26.1273 23.2086 23.3936 23.2623 21.2468 24.2774C20.4837 24.6378 19.1571 25.5211 18.6152 26.1294C17.9099 26.9213 17.3058 27.7651 16.8685 28.7627C16.3992 29.8341 16.0535 30.8994 16.0535 32.4622L16.0544 32.463Z" fill="#F4F4F4"/>
<path fill-rule="evenodd" clip-rule="evenodd" d="M3.98421 28.8874V36.0385C3.98421 36.7249 5.20108 37.7515 5.65309 38.2736L7.46802 40.3611C7.82928 40.7426 8.39969 41.5205 9.02282 41.5205H16.8746C17.7025 41.5205 18.0984 40.4728 17.4925 39.9401C17.0284 39.5314 15.6516 39.7327 14.8825 39.7327C13.0079 39.7327 11.1325 39.7327 9.25789 39.7327C8.70045 38.8863 5.74211 35.9128 5.74211 35.5612V29.3638C5.74211 29.0368 8.7307 26.0932 9.17406 25.7039C9.84559 25.1141 9.84991 25.1862 11.0149 25.1923C12.5766 25.2002 14.1409 25.1906 15.7026 25.1923C16.5245 25.1932 17.3266 25.3505 17.6533 24.7827C18.0923 24.018 17.3171 23.4045 16.9912 23.4045H9.3737C8.68489 23.4045 7.01256 25.3857 6.47326 25.9377C5.97373 26.4483 5.56061 26.7419 5.06626 27.2482C4.67389 27.6507 3.98248 28.1728 3.98248 28.8874H3.98421Z" fill="#F4F4F4"/>
<path fill-rule="evenodd" clip-rule="evenodd" d="M13.0079 4.93273C13.0079 5.44252 13.3692 5.88638 13.8281 5.88638C14.7839 5.88638 15.5307 3.52906 16.2886 2.07265C16.9489 2.2291 24.041 5.31771 25.0954 5.74927C26.1134 6.16501 27.0321 6.56405 28.0744 7.00967C29.0813 7.43948 29.9672 7.79721 30.9697 8.23668C31.9886 8.68406 32.9272 9.03916 33.9436 9.50236C34.7802 9.88382 39.537 11.9643 40.0772 11.9643C40.6493 11.9643 41.1765 10.9157 40.5007 10.3435C40.2985 10.1721 38.8405 9.6052 38.5354 9.48039L18.4371 0.959902C16.0613 -0.123836 15.5549 -0.500024 14.8401 0.959023C14.5307 1.59186 13.0062 4.44931 13.0062 4.93361L13.0079 4.93273Z" fill="#F4F4F4"/>
<path fill-rule="evenodd" clip-rule="evenodd" d="M32.9298 25.1933H40.8983C42.1039 25.1933 42.0373 23.4055 40.7807 23.4055H33.0465C31.7899 23.4055 31.7233 25.1933 32.9298 25.1933Z" fill="#F4F4F4"/>
<path fill-rule="evenodd" clip-rule="evenodd" d="M22.3539 28.8918H27.4505C27.937 28.8918 28.3354 29.297 28.3354 29.7919C28.3354 30.2867 27.937 30.6919 27.4505 30.6919H22.3539C21.8674 30.6919 21.4689 30.2867 21.4689 29.7919C21.4689 29.297 21.8674 28.8918 22.3539 28.8918Z" fill="#F4F4F4"/>
<path fill-rule="evenodd" clip-rule="evenodd" d="M22.3539 31.4839H27.4504C27.937 31.4839 28.3354 31.8891 28.3354 32.3839C28.3354 32.8788 27.937 33.284 27.4504 33.284H22.3539C21.8674 33.284 21.4689 32.8788 21.4689 32.3839C21.4689 31.8891 21.8674 31.4839 22.3539 31.4839Z" fill="#F4F4F4"/>
<path fill-rule="evenodd" clip-rule="evenodd" d="M25.7876 32.4769V35.9725C25.7876 36.4673 25.3892 36.8725 24.9026 36.8725C24.4161 36.8725 24.0176 36.4673 24.0176 35.9725V32.4769C24.0176 31.9821 24.4161 31.5769 24.9026 31.5769C25.3892 31.5769 25.7876 31.9821 25.7876 32.4769Z" fill="#F4F4F4"/>
</g>
<defs>
<clipPath id="clip0_31_91">
<rect width="60" height="59" fill="white"/>
</clipPath>
</defs>
</svg>
