<svg width="170" height="19" viewBox="0 0 170 19" fill="none" xmlns="http://www.w3.org/2000/svg">
    <path d="M3.792 18L5.04 14.856H12.72L13.944 18H17.664L10.824 1.2H6.936L0.072 18H3.792ZM8.496 5.856C8.64 5.52 8.76 5.184 8.88 4.536C9 5.184 9.12 5.52 9.24 5.856L11.592 11.88H6.168L8.496 5.856ZM22.8302 8.208V6.48H19.8782V18H23.2142V11.232C23.9102 9.864 25.6622 9.168 27.4862 9.48V6.24C25.3262 6.024 23.6462 6.936 22.8302 8.208ZM30.8372 3.12V6.48H28.8932V9.288H30.8372V14.448C30.8372 17.304 32.7572 18.336 34.9892 18.336C36.1412 18.336 37.1972 18.144 38.0852 17.832V15.144C37.4132 15.408 36.7652 15.528 35.9972 15.528C34.7492 15.528 34.1492 15 34.1492 13.8V9.288H37.7972V6.48H34.1492V2.328L30.8372 3.12ZM40.1724 9.792C40.1724 15.648 44.7564 18.336 49.2444 18.336C51.0204 18.336 52.6764 17.952 54.1164 17.256V13.728C53.1084 14.64 51.5244 15.12 49.7964 15.12C46.8684 15.12 43.8444 13.488 43.8684 9.792C43.8684 5.736 46.8444 4.056 49.7964 4.056C51.3564 4.056 52.9164 4.536 53.9964 5.376V1.944C52.5564 1.224 50.8764 0.863999 49.1964 0.863999C44.7084 0.863999 40.1964 3.648 40.1724 9.792ZM67.4436 15.024V11.352C67.4436 7.56 65.2356 6.144 61.7796 6.144C60.0036 6.144 58.2516 6.6 57.3156 6.912V9.792C58.3956 9.36 59.8116 8.928 61.3956 8.928C63.1956 8.928 64.1076 9.72 64.1076 10.872V11.28C63.2916 11.088 62.2836 10.968 61.3716 10.968C59.0676 10.968 56.3076 11.88 56.3076 14.808C56.3076 17.088 58.1796 18.336 60.3396 18.336C62.0436 18.336 63.3636 17.808 64.4916 16.92C64.9716 17.784 65.8596 18.216 67.0356 18.216C67.6836 18.216 68.3556 18.072 68.8836 17.88V15.696C68.6676 15.768 68.4516 15.792 68.2596 15.792C67.8276 15.792 67.4436 15.624 67.4436 15.024ZM62.1396 12.96C62.8356 12.96 63.6036 13.104 64.1076 13.224V15.024C63.3396 15.696 62.4516 15.96 61.5156 15.96C60.5076 15.96 59.7156 15.408 59.7156 14.544C59.7156 13.368 60.9156 12.96 62.1396 12.96ZM74.5161 18V10.416C75.0681 9.696 75.9801 9.024 76.9881 9.024C78.0441 9.024 78.7881 9.72 78.7881 10.92V18H82.1001V10.704C82.1001 10.512 82.1001 10.344 82.0761 10.176C82.6281 9.552 83.4441 9.024 84.3561 9.024C85.4121 9.024 86.1561 9.72 86.1561 10.92V18H89.4681V10.704C89.4681 8.664 88.4121 6.144 85.1721 6.144C83.5881 6.144 82.2921 6.912 81.3321 7.848C80.6601 6.864 79.5321 6.144 77.8041 6.144C76.0521 6.144 74.7321 7.104 74.1321 7.824V6.48H71.1801V18H74.5161ZM96.5001 16.344C96.5001 15 95.5641 14.376 94.4841 14.376C93.4041 14.376 92.4441 15 92.4441 16.344C92.4441 17.688 93.4041 18.312 94.4841 18.312C95.5641 18.312 96.5001 17.688 96.5001 16.344ZM98.9486 12.24C98.9486 16.272 101.973 18.336 105.309 18.336C108.669 18.336 111.669 16.272 111.669 12.24C111.669 8.208 108.669 6.144 105.309 6.144C101.973 6.144 98.9486 8.208 98.9486 12.24ZM108.285 12.24C108.285 14.016 107.229 15.36 105.309 15.36C103.413 15.36 102.357 14.016 102.357 12.24C102.357 10.464 103.413 9.12 105.309 9.12C107.229 9.12 108.285 10.464 108.285 12.24ZM117.519 7.944V6.48H114.567V18H117.903V10.488C118.383 9.792 119.295 9.024 120.471 9.024C121.767 9.024 122.703 9.744 122.703 11.304V18H126.039V10.872C126.039 8.208 124.383 6.144 121.359 6.144C119.703 6.144 118.407 6.912 117.519 7.944ZM129.491 0.48V18H132.827V0.48H129.491ZM139.781 18V6.48H136.445V18H139.781ZM140.069 2.664C140.069 1.368 139.157 0.792 138.101 0.792C137.069 0.792 136.157 1.368 136.157 2.664C136.157 3.984 137.069 4.56 138.101 4.56C139.157 4.56 140.069 3.984 140.069 2.664ZM146.327 7.944V6.48H143.375V18H146.711V10.488C147.191 9.792 148.103 9.024 149.279 9.024C150.575 9.024 151.511 9.744 151.511 11.304V18H154.847V10.872C154.847 8.208 153.191 6.144 150.167 6.144C148.511 6.144 147.215 6.912 146.327 7.944ZM157.603 12.24C157.603 16.248 160.627 18.336 164.275 18.336C166.003 18.336 167.419 18.072 168.499 17.616V15C167.515 15.432 166.339 15.696 165.019 15.696C163.123 15.696 161.347 15 160.963 13.32H169.075C169.843 9.912 168.307 6.144 163.531 6.144C160.939 6.144 157.603 7.896 157.603 12.24ZM166.075 11.16H160.939C160.987 9.576 162.235 8.688 163.651 8.688C165.739 8.688 166.195 10.368 166.075 11.16Z" fill="#F4F4F4"/>
    </svg>
