<svg width="29" height="29" viewBox="0 0 29 29" fill="none" xmlns="http://www.w3.org/2000/svg">
<rect width="29" height="29" rx="7" fill="#F4F4F4"/>
<mask id="mask0_47_102" style="mask-type:alpha" maskUnits="userSpaceOnUse" x="0" y="0" width="29" height="29">
<rect width="29" height="29" rx="7" fill="#C4C4C4"/>
</mask>
<g mask="url(#mask0_47_102)">
<path d="M6.68324 -23H43.3168C43.6939 -23 44 -22.6895 44 -22.3069V22.9286C44 23.3112 43.6939 23.6217 43.3168 23.6217H6.68324C6.30614 23.6217 6 23.3112 6 22.9286V-22.3069C6 -22.6895 6.30614 -23 6.68324 -23V-23ZM42.6335 -21.6131H7.36728V22.2356H42.6335V-21.6131Z" fill="#3F4142"/>
<path d="M24.3168 -22.3069C24.3168 -22.6895 24.6229 -23 25 -23C25.3771 -23 25.6832 -22.6895 25.6832 -22.3069V11.0609C25.6832 11.4435 25.3771 11.754 25 11.754C24.6229 11.754 24.3168 11.4435 24.3168 11.0609V-22.3069Z" fill="#3F4142"/>
<path d="M43.3168 10.3677C43.6939 10.3677 44 10.6782 44 11.0607C44 11.4433 43.6939 11.7538 43.3168 11.7538H6.68324C6.30614 11.7538 6 11.4433 6 11.0607C6 10.6782 6.30614 10.3677 6.68324 10.3677H43.3168Z" fill="#3F4142"/>
<path d="M43.3168 16.2974C43.6939 16.2974 44 16.6079 44 16.9904C44 17.3729 43.6939 17.6835 43.3168 17.6835H6.68324C6.30614 17.6835 6 17.3729 6 16.9904C6 16.6079 6.30614 16.2974 6.68324 16.2974H43.3168Z" fill="#3F4142"/>
<path d="M26.8233 13.3223C27.2004 13.3223 27.5065 13.6328 27.5065 14.0153C27.5065 14.3978 27.2004 14.7084 26.8233 14.7084H23.1775C22.8004 14.7084 22.4942 14.3978 22.4942 14.0153C22.4942 13.6328 22.8004 13.3223 23.1775 13.3223H26.8233Z" fill="#3F4142"/>
<path d="M26.8233 19.2637C27.2004 19.2637 27.5065 19.5742 27.5065 19.9567C27.5065 20.3392 27.2004 20.6498 26.8233 20.6498H23.1775C22.8004 20.6498 22.4942 20.3392 22.4942 19.9567C22.4942 19.5742 22.8004 19.2637 23.1775 19.2637H26.8233Z" fill="#3F4142"/>
<path d="M8.11511 22.9289C8.11511 22.5464 8.42126 22.2358 8.79835 22.2358C9.17545 22.2358 9.48159 22.5464 9.48159 22.9289V24.4412C9.48159 24.8237 9.17545 25.1342 8.79835 25.1342C8.42126 25.1342 8.11511 24.8237 8.11511 24.4412V22.9289Z" fill="#3F4142"/>
</g>
</svg>
