<svg width="29" height="29" viewBox="0 0 29 29" fill="none" xmlns="http://www.w3.org/2000/svg">
<rect width="29" height="29" rx="7" fill="#A6775B"/>
<mask id="mask0_8_56" style="mask-type:alpha" maskUnits="userSpaceOnUse" x="0" y="0" width="29" height="29">
<rect width="29" height="29" rx="7" fill="#C4C4C4"/>
</mask>
<g mask="url(#mask0_8_56)">
<path d="M6.68324 -23H43.3168C43.6939 -23 44 -22.6895 44 -22.3069V22.9286C44 23.3112 43.6939 23.6217 43.3168 23.6217H6.68324C6.30614 23.6217 6 23.3112 6 22.9286V-22.3069C6 -22.6895 6.30614 -23 6.68324 -23V-23ZM42.6335 -21.6131H7.36728V22.2356H42.6335V-21.6131Z" fill="white"/>
<path d="M24.3168 -22.3069C24.3168 -22.6895 24.6229 -23 25 -23C25.3771 -23 25.6832 -22.6895 25.6832 -22.3069V11.0609C25.6832 11.4435 25.3771 11.754 25 11.754C24.6229 11.754 24.3168 11.4435 24.3168 11.0609V-22.3069Z" fill="white"/>
<path d="M43.3168 10.3679C43.6939 10.3679 44 10.6785 44 11.061C44 11.4435 43.6939 11.754 43.3168 11.754H6.68324C6.30614 11.754 6 11.4435 6 11.061C6 10.6785 6.30614 10.3679 6.68324 10.3679H43.3168Z" fill="white"/>
<path d="M43.3168 16.2971C43.6939 16.2971 44 16.6077 44 16.9902C44 17.3727 43.6939 17.6832 43.3168 17.6832H6.68324C6.30614 17.6832 6 17.3727 6 16.9902C6 16.6077 6.30614 16.2971 6.68324 16.2971H43.3168Z" fill="white"/>
<path d="M26.8233 13.3223C27.2004 13.3223 27.5065 13.6328 27.5065 14.0153C27.5065 14.3978 27.2004 14.7084 26.8233 14.7084H23.1775C22.8004 14.7084 22.4942 14.3978 22.4942 14.0153C22.4942 13.6328 22.8004 13.3223 23.1775 13.3223H26.8233Z" fill="white"/>
<path d="M26.8233 19.2634C27.2004 19.2634 27.5065 19.574 27.5065 19.9565C27.5065 20.339 27.2004 20.6495 26.8233 20.6495H23.1775C22.8004 20.6495 22.4942 20.339 22.4942 19.9565C22.4942 19.574 22.8004 19.2634 23.1775 19.2634H26.8233Z" fill="white"/>
<path d="M8.11511 22.9289C8.11511 22.5464 8.42126 22.2358 8.79835 22.2358C9.17545 22.2358 9.48159 22.5464 9.48159 22.9289V24.4412C9.48159 24.8237 9.17545 25.1342 8.79835 25.1342C8.42126 25.1342 8.11511 24.8237 8.11511 24.4412V22.9289Z" fill="white"/>
</g>
</svg>
