<svg width="21" height="39" viewBox="0 0 21 39" fill="none" xmlns="http://www.w3.org/2000/svg">
<path d="M18.6777 0.292893C19.0682 -0.0976311 19.7014 -0.0976311 20.0919 0.292893C20.4824 0.683418 20.4824 1.31658 20.0919 1.70711L18.6777 0.292893ZM1 19.3848L0.292898 20.0919C-0.0976262 19.7014 -0.0976258 19.0682 0.292898 18.6777L1 19.3848ZM20.0919 37.0624C20.4824 37.453 20.4824 38.0861 20.0919 38.4767C19.7014 38.8672 19.0682 38.8672 18.6777 38.4767L20.0919 37.0624ZM20.0919 1.70711L1.70711 20.0919L0.292898 18.6777L18.6777 0.292893L20.0919 1.70711ZM1.70711 18.6777L20.0919 37.0624L18.6777 38.4767L0.292898 20.0919L1.70711 18.6777Z" fill="#F4F4F4"/>
</svg>
