<svg width="60" height="60" viewBox="0 0 60 60" fill="none" xmlns="http://www.w3.org/2000/svg">
<path fill-rule="evenodd" clip-rule="evenodd" d="M17.9296 6.69239C15.0724 7.34742 16.2074 8.40853 13.9451 6.92287C10.6462 4.75725 9.69413 3.66571 6.70882 6.60559C3.73517 9.53349 4.82704 10.4754 6.98394 13.6617C8.18526 15.4362 7.824 14.6714 7.19066 16.5422C7.05082 16.9558 6.87906 17.3045 6.79647 17.6542C5.8414 17.6542 3.4798 18.205 2.45684 18.4584C0.647514 18.9069 0.127669 19.985 -0.000518799 21.309V24.1161C-0.000518799 25.0171 0.306524 25.5135 0.747834 26.0328C1.634 27.0755 4.75611 27.4072 6.12817 27.6582C7.15874 27.8467 6.95709 28.3102 7.31328 29.1453C8.05606 30.8859 8.04846 30.175 5.7882 33.5085C5.19134 34.3885 4.92078 34.8664 4.92078 36.0009C4.92078 37.3019 6.11348 38.156 6.82485 38.8564C9.11095 41.1074 9.84511 41.1528 12.7017 39.2775C13.5849 38.6978 14.3834 38.176 15.2331 37.6157C18.6556 39.3987 17.6595 37.7345 18.4459 41.6062C18.8628 43.6596 19.328 45.4621 21.9125 45.4621C25.9324 45.4621 26.8379 45.6182 27.6642 41.5484L28.1243 39.2321C28.3624 38.0712 29.4062 38.5726 30.4915 37.7549C31.1962 37.2236 30.9464 36.2922 30.1545 36.0697C29.7385 35.953 29.2076 36.2648 28.7936 36.4294C25.7389 37.6452 26.6276 36.7287 25.75 41.0485C25.1243 44.1291 25.0437 43.5005 21.6779 43.5005C20.5663 43.5005 20.5749 42.1655 20.3793 41.2027C20.1792 40.2169 19.9877 39.2535 19.7764 38.2194C19.446 36.6035 18.3106 36.9527 16.483 36.0388C14.6671 35.1313 14.7786 35.6063 12.4904 37.1079C9.85271 38.839 10.0772 39.2895 8.23086 37.4716C7.64464 36.8944 6.9125 36.4593 6.9125 35.6542C6.9125 34.5881 9.95912 31.5793 9.95912 30.3466C9.95912 29.8393 9.10791 28.4224 8.88953 27.8228C8.41833 26.5312 8.63062 26.183 7.09845 25.8936C6.001 25.6866 5.00742 25.4821 3.9728 25.279C1.39333 24.7727 1.87315 24.4165 1.87315 21.9231C1.87315 20.3691 2.48977 20.404 3.81623 20.1441C8.14726 19.2955 8.17057 19.8039 8.88852 17.6382C9.07295 17.0815 9.19506 16.843 9.45092 16.3461C10.4546 14.3995 9.65765 14.1511 8.43505 12.3462C6.67994 9.754 6.23863 9.83581 8.11281 7.99047C9.98952 6.14263 9.90845 6.58264 12.5366 8.30775C13.1096 8.68391 14.4432 9.80788 15.1145 9.80788C15.9059 9.80788 17.0398 9.03661 17.8232 8.78268C18.2614 8.6405 18.8167 8.49583 19.1841 8.27632C19.6462 7.99995 19.7075 7.46515 19.8134 6.93435C20.0165 5.91464 20.2182 4.93485 20.4366 3.85578C20.9382 1.38235 21.3121 1.84631 24.0208 1.84631C25.4506 1.84631 25.4237 2.68991 25.6517 3.81737C26.8227 9.61281 25.7434 7.41826 29.4908 9.26809C30.042 9.54048 30.5538 9.80788 31.1694 9.80788C31.8169 9.80788 35.1351 6.80813 36.5599 6.80813C36.9632 6.80813 39.2553 9.16981 39.2553 9.57739C39.2553 10.1361 38.8338 10.6056 38.5759 10.9852C38.0839 11.7096 36.0917 14.3367 36.0917 14.8854C36.0917 15.7051 36.8517 16.6659 37.1329 17.4372C38.2065 20.3831 37.8047 18.9543 43.3128 20.3526C44.5723 20.6724 44.1777 22.1171 44.1777 24.0014C44.1777 25.0411 43.0452 25.0909 42.1758 25.2611C41.239 25.4447 40.4106 25.6093 39.4413 25.7994C38.1533 26.0518 37.8498 25.9066 37.4516 27.071C37.2778 27.5783 36.5609 29.1713 36.5609 29.5399C36.5609 30.0837 37.0255 30.4628 37.6158 30.4628C38.6458 30.4628 38.8485 28.85 39.1449 28.1605C39.3769 27.6212 39.8806 27.6946 40.4379 27.5873C43.0716 27.081 46.1704 27.0266 46.1704 23.6547C46.1704 19.967 46.295 18.9598 42.3521 18.1835C41.7512 18.0653 39.7134 17.8163 39.3643 17.5484C39.2128 17.4322 38.886 16.5133 38.7877 16.2698C38.5977 15.7989 38.4315 15.4282 38.2015 15.0007C38.8353 14.0693 41.2486 10.9723 41.2486 9.80837C41.2486 8.24589 40.3371 7.58388 39.5198 6.7797C37.7865 5.07304 36.6642 3.96603 34.1 5.65473C33.3161 6.17107 31.9811 7.18379 31.1486 7.60584C30.876 7.74402 31.1435 7.77545 30.6592 7.67219C30.3354 7.60334 29.9944 7.37136 29.6808 7.23667C29.3018 7.07403 29.0611 7.01167 28.6568 6.86051C28.1714 6.67892 28.218 6.69389 28.105 6.13465C26.9498 0.404058 27.1236 0.020921 22.9831 0.00146484H21.4438C19.9709 0.00146484 19.065 1.16834 18.7448 2.42101C18.4874 3.42825 17.928 5.75301 17.928 6.69389L17.9296 6.69239Z" fill="#F4F4F4"/>
<path fill-rule="evenodd" clip-rule="evenodd" d="M39.4925 33.6925C36.7159 31.8621 35.85 30.7501 33.6034 32.9711C31.8721 34.6833 31.8387 35.3737 33.0937 37.2231C33.495 37.8147 33.838 38.3256 34.2185 38.8848L33.9399 39.3029C33.6815 39.7988 33.3982 40.6274 33.3982 41.1926C33.3982 41.5743 33.9439 42.0003 34.3361 42.0003C35.1787 42.0003 35.2902 41.2665 35.5252 40.6329C35.6261 40.3615 36.3278 38.8778 36.3278 38.7696C36.3278 38.0781 34.4202 36.0457 34.2185 35.1926L35.7137 33.6646C36.6085 33.8911 38.6727 35.7693 39.3749 35.7693C39.5259 35.7693 40.6249 35.2291 40.9309 35.1088C42.684 34.4214 42.4474 34.9846 42.9591 32.4907C43.1045 31.7833 43.2109 31.2051 43.3594 30.577C44.1508 30.3954 44.9113 30.3954 45.7033 30.577C46.7414 34.9641 45.8776 34.2303 48.0486 35.0754C48.3192 35.1807 49.5529 35.7693 49.6877 35.7693C50.3023 35.7693 52.367 33.911 53.3206 33.6925L54.8725 35.1647C54.7342 35.6576 54.0638 36.5186 53.7897 36.9232C52.3528 39.045 52.5899 38.352 53.3879 40.3186C54.2782 42.5116 53.6316 41.6885 58.0083 42.6922C58.1927 43.4715 58.1927 44.2203 58.0083 45C53.7624 45.9739 54.2878 45.1717 53.4563 47.2106C52.6269 49.244 52.2996 48.5685 53.696 50.6309C54.0922 51.2165 54.5193 51.7798 54.8446 52.3844C54.5082 53.01 53.8394 53.6685 53.204 53.9998C52.3072 53.5323 50.2456 51.923 49.6887 51.923C49.6882 51.923 46.8149 52.9491 46.5646 53.3472C46.3143 53.7453 45.8674 56.4253 45.7043 57.1153C44.9123 57.2968 44.1523 57.2968 43.3604 57.1153C42.2366 52.3655 43.3786 53.6191 40.2793 52.3031C39.1814 51.8371 39.6384 51.5583 37.5717 52.9152C37.1167 53.214 36.2194 53.891 35.7436 53.9998L34.1917 52.5276C34.442 51.5608 36.3293 49.5283 36.3293 48.9227C36.3293 48.774 35.7806 47.692 35.6585 47.3907C34.7759 45.2096 35.6641 46.0567 31.0559 44.9995C30.8654 44.1949 30.9389 44.2328 30.9389 43.2689C30.9389 42.1435 32.2278 42.9422 32.2278 41.6536C32.2278 39.9863 29.0637 40.6728 29.0637 42.8075C29.0637 46.0447 28.8645 46.567 32.1984 47.221C32.3758 47.256 32.7056 47.3158 32.9873 47.3672C33.5675 47.4735 33.3658 47.3078 33.6389 47.6486C33.6587 47.673 34.292 48.6653 34.0463 49.0878C33.8892 49.3577 33.9865 49.1677 33.8502 49.3597C32.2314 51.6386 31.3665 52.5261 33.4874 54.6054C35.5313 56.6089 36.1454 56.1589 38.2744 54.7611C38.4731 54.6308 39.2376 54.0911 39.3962 54.0751C39.5746 54.0571 40.5084 54.4473 40.7825 54.5765C41.2542 55.0409 40.8129 59.0763 43.478 59.0763H45.3785C46.3893 58.999 47.2962 58.6742 47.6266 57.5069C47.8683 56.6523 47.9995 54.8578 48.379 54.5555C48.4636 54.4882 49.478 54.0796 49.5975 54.0736C50.1219 54.0492 52.0098 55.9609 53.2045 55.9609C54.6389 55.9609 56.8374 53.6136 56.8374 52.4992C56.8374 51.1976 55.064 49.465 54.9353 48.9716C54.8725 48.7311 55.33 47.7548 55.364 47.702C55.9096 46.8619 60.0015 47.6201 60.0015 44.8833V42.9741C59.922 41.9998 59.5901 41.1517 58.4085 40.798C57.6303 40.565 55.9755 40.4094 55.4313 40.1525C55.3842 40.0552 54.9242 38.9187 54.9211 38.8579C54.9079 38.5885 56.087 36.9966 56.3251 36.6479C58.1233 34.0133 54.152 31.7299 53.205 31.7299C52.0179 31.7299 50.0378 33.5478 49.6599 33.6067C49.5296 33.6267 49.2961 33.5264 49.0372 33.4176C48.911 33.3648 48.4322 33.1482 48.3957 33.1193C48.0263 32.832 48.2376 33.0719 47.9807 31.7973C47.2988 28.4174 46.8124 28.6145 43.479 28.6145C41.9929 28.6145 41.4964 29.7828 41.2608 30.9302C40.6852 33.7299 41.1189 32.8364 39.8456 33.46C39.6501 33.5558 39.6389 33.5678 39.4945 33.6915L39.4925 33.6925Z" fill="#F4F4F4"/>
<path fill-rule="evenodd" clip-rule="evenodd" d="M19.219 22.7306C19.219 19.6935 22.6867 17.6042 25.6193 19.8905C27.9525 21.7094 26.8379 26.4228 23.3205 26.4228C22.1344 26.4228 21.0689 26.2447 20.2526 25.2899C19.75 24.7012 19.219 23.7798 19.219 22.7306ZM17.2268 22.6154C17.2268 24.2432 17.9888 25.7369 18.8365 26.569C19.3411 27.0644 19.749 27.44 20.4269 27.7723C23.0642 29.0644 25.9066 28.3475 27.7407 26.0437C31.1856 21.7169 26.1665 14.9387 20.7005 17.4964C18.6536 18.4543 17.2273 20.4034 17.2273 22.6154H17.2268Z" fill="#F4F4F4"/>
<path fill-rule="evenodd" clip-rule="evenodd" d="M15.3516 15.8078C15.3516 16.5591 16.0458 17.456 17.315 16.2408C17.5906 15.9774 17.8971 15.7534 18.2315 15.5279C23.4036 12.0417 31.7581 15.2036 31.7581 22.9616C31.7581 23.8167 31.5935 24.4692 31.3938 25.1417C31.2758 25.5393 31.2373 25.7189 31.0559 26.0781C30.9206 26.3455 30.7033 26.7227 30.7033 27.1153C30.7033 27.5842 31.2798 28.0382 31.7581 28.0382C33.5705 28.0382 36.4104 17.5319 27.7752 13.2675C24.2295 11.5164 19.6989 11.9465 16.5732 14.356C16.3067 14.5616 16.104 14.7107 15.8517 14.9153C15.5761 15.1388 15.3516 15.3573 15.3516 15.8078Z" fill="#F4F4F4"/>
<path fill-rule="evenodd" clip-rule="evenodd" d="M12.4221 22.0383C12.4221 24.1775 12.4915 25.4152 13.4754 27.3473C15.8462 32.0013 21.1971 34.4957 26.9103 32.4962C27.5533 32.2712 29.6484 31.2919 29.6484 30.6923C29.6484 29.7943 29.5278 29.5384 28.4765 29.5384L26.0688 30.7447C21.6481 32.4673 16.3412 30.0073 14.8065 25.4601C14.6768 25.0764 14.4898 24.4174 14.4427 24.0877C14.3961 23.7609 14.2876 22.7317 14.2993 22.5102C14.355 21.4262 14.8435 19.7824 14.8465 19.5983C14.8637 18.6744 13.5393 18.1935 13.0058 19.1523C12.7347 19.6392 12.4216 21.2301 12.4216 22.0388L12.4221 22.0383Z" fill="#F4F4F4"/>
<path fill-rule="evenodd" clip-rule="evenodd" d="M43.8281 49.0386H45C46.0503 49.0386 48.1641 48.187 48.1641 47.308C48.1641 46.7936 47.6894 46.2693 47.2268 46.2693C46.7206 46.2693 46.4111 46.6115 46.0184 46.8106C42.724 48.4813 39.4616 44.192 42.0957 41.5634C43.9877 39.6756 47.359 40.3481 47.8794 43.5499C48.0451 44.5696 48.1322 44.7692 49.102 44.7692C50.1979 44.7692 50.0571 42.2598 48.6713 40.5776C46.5246 37.9715 42.6632 37.8358 40.3381 40.64C37.2327 44.3845 40.9562 49.0386 43.8286 49.0386H43.8281Z" fill="#F4F4F4"/>
</svg>
