<svg width="58" height="58" viewBox="0 0 58 58" fill="none" xmlns="http://www.w3.org/2000/svg">
<g clip-path="url(#clip0_31_71)">
<path fill-rule="evenodd" clip-rule="evenodd" d="M35.8798 2.11876C35.8798 3.27566 37.8388 3.64 37.8388 2.00481C37.8388 0.860434 35.8798 0.778163 35.8798 2.11876Z" fill="#F4F4F4"/>
<path fill-rule="evenodd" clip-rule="evenodd" d="M13.4408 14.1927C13.4408 15.905 15.3997 15.7428 15.3997 14.3064C15.3997 13.0263 13.4408 13.312 13.4408 14.1927Z" fill="#F4F4F4"/>
<path fill-rule="evenodd" clip-rule="evenodd" d="M28.0207 43.6938C28.0207 44.1994 27.9003 45.4774 28.2284 45.8732C28.4323 46.1192 28.8178 46.1537 29.1142 46.1537C30.2364 46.1537 29.9796 44.6761 29.9796 43.9214C29.9796 42.313 28.0207 42.6424 28.0207 43.6938Z" fill="#F4F4F4"/>
<path fill-rule="evenodd" clip-rule="evenodd" d="M28.0207 12.7118C28.0207 13.2392 27.8904 14.4482 28.2225 14.868C28.4287 15.128 28.8053 15.172 29.1142 15.172C30.2798 15.172 29.9796 13.4977 29.9796 12.7118C29.9796 11.4767 28.0207 11.5978 28.0207 12.7118Z" fill="#F4F4F4"/>
<path fill-rule="evenodd" clip-rule="evenodd" d="M12.7116 29.9797C13.238 29.9797 14.4636 30.0998 14.8795 29.7587C15.1294 29.5538 15.1718 29.1879 15.1718 28.8862C15.1718 27.7206 13.4975 28.0208 12.7116 28.0208C11.4699 28.0208 11.5471 29.9797 12.7116 29.9797Z" fill="#F4F4F4"/>
<path fill-rule="evenodd" clip-rule="evenodd" d="M42.8282 28.8862C42.8282 29.1951 42.8721 29.5719 43.1322 29.7778C43.552 30.11 44.7608 29.9797 45.2884 29.9797C46.5301 29.9797 46.4529 28.0208 45.2884 28.0208C44.5025 28.0208 42.8282 27.7206 42.8282 28.8862Z" fill="#F4F4F4"/>
<path fill-rule="evenodd" clip-rule="evenodd" d="M25.6243 27.2139C25.4682 27.8851 25.2076 28.4035 25.1816 29.1263C25.145 30.1399 25.6325 30.9687 26.3321 31.6683C27.363 32.6992 28.7246 33.105 30.1224 32.6264C31.6424 32.1062 32.8271 30.6348 32.8271 29.0001C32.8271 28.2806 32.5262 27.8596 32.3759 27.2137L32.3601 27.1462L32.3987 27.0887C32.8611 26.3981 33.8292 25.5969 34.4401 24.986L38.5976 20.8285C38.9962 20.4302 40.4589 19.1831 40.4589 18.6348C40.4589 18.0078 39.9924 17.5413 39.3654 17.5413C38.7851 17.5413 35.7327 20.85 35.1208 21.4535L30.872 25.6441L30.7865 25.6242C30.1405 25.474 29.7197 25.173 29 25.173C28.2805 25.173 27.8594 25.474 27.2135 25.6242L27.1461 25.6401L27.0886 25.6015C26.3959 25.1377 25.5965 24.2177 25.018 23.6004C24.656 23.2138 23.1383 21.5281 22.6212 21.5281C21.8233 21.5281 21.5279 21.8234 21.5279 22.6213C21.5279 23.1303 22.0422 23.4688 22.3639 23.7897C22.8798 24.3048 23.4061 24.8107 23.9248 25.3232C24.2773 25.6717 24.6294 26.0223 24.9731 26.3795C25.1683 26.5823 25.4463 26.8565 25.6013 27.0885L25.6399 27.146L25.6241 27.2134L25.6243 27.2139ZM30.7543 29.0004C30.7543 31.3246 27.2457 31.3246 27.2457 29.0004C27.2457 26.6761 30.7543 26.6761 30.7543 29.0004Z" fill="#F4F4F4"/>
<path fill-rule="evenodd" clip-rule="evenodd" d="M12.4699 42.9173L16.6136 46.7123C17.1371 47.0577 17.654 47.4031 18.1944 47.7233C18.7746 48.0674 19.3935 48.3385 19.9957 48.6402C23.0652 50.1773 26.607 50.7438 30.0164 50.5578C33.3713 50.3746 36.8076 49.4515 39.7277 47.7703L44.295 44.2899L46.7102 41.3897C49.4374 37.255 50.5964 33.6351 50.5964 28.6585C50.5964 25.046 49.5567 21.48 47.8055 18.3343C47.1995 17.2454 46.4537 16.2318 45.691 15.2548L44.4056 13.8199C43.4871 12.9052 42.6128 12.2138 41.58 11.4407C35.8201 7.12889 27.6642 6.26556 21.0207 8.92223C20.1502 9.27048 17.0899 10.4315 17.0204 11.4977C16.9872 12.0061 17.421 12.5524 17.9514 12.5524C18.6165 12.5524 19.7195 11.6936 20.3462 11.3883C26.6928 8.29473 34.0147 8.81799 39.8866 12.7156C40.3669 13.0345 40.8271 13.374 41.2865 13.7215C43.4513 15.3598 45.3614 17.9689 46.5702 20.3859C48.348 23.9409 48.5232 26.1109 48.5232 30.0254C48.5232 33.5262 46.9844 37.442 45.0104 40.3C44.0142 41.7423 42.9608 42.7927 41.6623 43.9531C38.8061 46.5056 33.8729 48.5232 30.0251 48.5232C26.3574 48.5232 23.8683 48.3252 20.5368 46.6458C19.5161 46.1313 18.5672 45.6231 17.6318 44.9626C17.19 44.6509 16.7406 44.3131 16.3377 43.9529C15.7281 43.4079 15.0183 42.845 14.5213 42.1961C14.357 41.9814 14.1652 41.8036 13.9909 41.5987C11.3238 38.4637 9.47649 33.8226 9.47649 29.6833C9.47649 27.8646 9.51277 25.9916 9.96884 24.2207C10.3222 22.8492 10.916 21.5196 11.4921 20.2296C11.8514 19.4255 13.148 17.9607 12.2239 17.2091C11.0545 16.2581 10.257 18.2025 9.85463 19.0096C7.95882 22.8134 7.40362 25.4124 7.40362 29.6833C7.40362 33.5265 9.0613 38.3797 11.3414 41.4515C11.52 41.692 11.6794 41.9449 11.86 42.1843C12.0517 42.4383 12.2694 42.67 12.4697 42.9171L12.4699 42.9173Z" fill="#F4F4F4"/>
<path fill-rule="evenodd" clip-rule="evenodd" d="M58 30.0254C58 23.8262 57.1405 20.0068 54.1859 14.5713C53.4953 13.3007 52.6705 12.2785 51.8762 11.0922L51.7098 10.8439H52.0085C52.5571 10.8439 53.9915 10.9869 54.4151 10.629C54.6591 10.4228 54.6966 10.0482 54.6966 9.75058C54.6966 9.27561 54.306 8.88495 53.831 8.88495H49.2747C48.7524 8.88495 48.409 9.37474 48.409 9.86427V14.1927C48.409 14.837 48.8914 15.172 49.5026 15.172C50.5054 15.172 50.4822 13.8807 50.4822 13.1676V12.7409L50.7622 13.0631C53.1575 15.8189 54.8124 20.4555 55.5349 24.0038C56.6584 29.5223 55.8305 34.781 53.6854 39.9316C52.6271 42.4733 50.8365 45.1195 48.9632 47.1331C47.4918 48.7146 46.2427 49.8638 44.4697 51.1153C41.1196 53.4799 37.2889 55.042 33.2377 55.6818C28.9236 56.3635 24.5055 55.9723 20.3631 54.5962C19.5199 54.3159 18.7266 53.9572 17.9065 53.6222C16.2094 52.9291 14.1072 51.6242 12.661 50.4924C10.6416 48.9113 9.1589 47.4044 7.55922 45.4044C4.01288 40.971 1.95866 34.6642 1.95866 29.0009C1.95866 23.2953 3.98707 17.16 7.51272 12.6566L9.89219 9.89315C14.8742 4.92293 21.9559 1.95992 28.9997 1.95992C29.847 1.95992 30.6671 2.08997 31.5075 2.15588C31.9643 2.19191 32.738 2.24429 33.1095 1.9198C33.3437 1.71515 33.3966 1.3899 33.3966 1.09403C33.3966 0.440724 32.8115 0.212308 32.2563 0.139235C31.7849 0.0774047 31.3143 0.031926 30.8452 0.000499639L27.4867 0.000244141C23.1138 0.270817 18.2488 1.58076 14.496 3.84371C9.00484 7.15522 5.63403 10.8674 2.75454 16.5803C1.17555 19.713 0 24.3291 0 27.8611C0 32.5921 0.502824 36.9231 2.63957 41.1938C3.02742 41.9687 3.39559 42.7615 3.84323 43.5042C4.46103 44.5285 5.09875 45.5955 5.87113 46.5135C6.44217 47.1921 7.00453 47.8367 7.55002 48.5424C9.61114 51.2073 13.6583 53.7707 16.6558 55.2842C19.7821 56.8627 24.4488 58.0005 27.9747 58.0005H30.0251C33.5101 58.0005 38.1768 56.8809 41.2686 55.3228C42.8243 54.5387 44.3006 53.7676 45.7163 52.7433C50.1452 49.5391 52.8289 46.2066 55.2838 41.3445C56.8564 38.2297 58 33.5385 58 30.0257V30.0254Z" fill="#F4F4F4"/>
</g>
<defs>
<clipPath id="clip0_31_71">
<rect width="58" height="58" fill="white"/>
</clipPath>
</defs>
</svg>
