<svg width="32" height="32" viewBox="0 0 32 32" fill="none" xmlns="http://www.w3.org/2000/svg">
<path d="M0 8C0 4.22876 0 2.34315 1.17157 1.17157C2.34315 0 4.22876 0 8 0H24C27.7712 0 29.6569 0 30.8284 1.17157C32 2.34315 32 4.22876 32 8V24C32 27.7712 32 29.6569 30.8284 30.8284C29.6569 32 27.7712 32 24 32H8C4.22876 32 2.34315 32 1.17157 30.8284C0 29.6569 0 27.7712 0 24V8Z" fill="url(#paint0_linear_419_622)"/>
<ellipse cx="16" cy="12.4444" rx="7.11111" ry="7.11111" fill="white"/>
<path fill-rule="evenodd" clip-rule="evenodd" d="M28.4369 31.6245C28.442 31.7506 28.3495 31.8596 28.2241 31.8743C27.158 32 25.7919 32 24.0001 32H8.0001C6.20829 32 4.84214 32 3.77601 31.8743C3.65066 31.8596 3.5581 31.7506 3.56319 31.6245C3.7939 25.9073 9.27379 21.3333 16.0001 21.3333C22.7263 21.3333 28.2062 25.9073 28.4369 31.6245Z" fill="white"/>
<defs>
<linearGradient id="paint0_linear_419_622" x1="16" y1="0" x2="16" y2="32" gradientUnits="userSpaceOnUse">
<stop stop-color="#C59D85"/>
<stop offset="1" stop-color="#A6775B"/>
</linearGradient>
</defs>
</svg>
