<svg width="21" height="39" viewBox="0 0 21 39" fill="none" xmlns="http://www.w3.org/2000/svg">
<path d="M2.09187 0.292893C1.70135 -0.0976311 1.06818 -0.0976311 0.677659 0.292893C0.287135 0.683418 0.287135 1.31658 0.677659 1.70711L2.09187 0.292893ZM19.7695 19.3848L20.4766 20.0919C20.8672 19.7014 20.8672 19.0682 20.4766 18.6777L19.7695 19.3848ZM0.677659 37.0624C0.287135 37.453 0.287135 38.0861 0.677659 38.4767C1.06818 38.8672 1.70135 38.8672 2.09187 38.4767L0.677659 37.0624ZM0.677659 1.70711L19.0624 20.0919L20.4766 18.6777L2.09187 0.292893L0.677659 1.70711ZM19.0624 18.6777L0.677659 37.0624L2.09187 38.4767L20.4766 20.0919L19.0624 18.6777Z" fill="#F4F4F4"/>
</svg>
